# xmcd
#
# Track frame offsets:
#	150
#	11271
#	22218
#	36934
#	49134
#	61936
#	75641
#	85951
#	98804
#	110513
#	128274
#	148705
#	167761
#	174636
#
# Disc length: 2581 seconds
#
# Revision: 1
# Processed by: cddbd v1.5.2PL0 Copyright (c) Steve Scherf et al.
# Submitted via: audiograbber 1.83.01
#
DISCID=b00a130e
DTITLE=Bluegrass Gospel Heritage - Olde Tyme Gospel Music "Pure and Simple"
DYEAR=1900
DGENRE=Gospel
TTITLE0=Devil Don't Stop At My House
TTITLE1=Gonna Be Moving
TTITLE2=One Drop of Water
TTITLE3=I Am The Man Thomas
TTITLE4=Look To Calvary
TTITLE5=On My Way Home
TTITLE6=Old Time Religion
TTITLE7=The Last Sunset
TTITLE8=When I Wake Up
TTITLE9=My Lord Keeps a Record
TTITLE10=Beautiful Star of Bethlehem
TTITLE11=Further Along
TTITLE12=When the Saints (instrumental)
TTITLE13=Dad's Ole Field
EXTD=
EXTT0=
EXTT1=
EXTT2=
EXTT3=
EXTT4=
EXTT5=
EXTT6=
EXTT7=
EXTT8=
EXTT9=
EXTT10=
EXTT11=
EXTT12=
EXTT13=
PLAYORDER=
